Coordinates
version=1
nRows=20
nColumns=34
inDegrees=yes

Units are S.I. units (second, meters, Newtons, ...)
If the header above contains a line with 'inDegrees', this indicates whether rotational values are in degrees (yes) or radians (no).

endheader
time	pelvis_tilt	pelvis_list	pelvis_rotation	pelvis_tx	pelvis_ty	pelvis_tz	hip_flexion_r	hip_adduction_r	hip_rotation_r	knee_angle_r	ankle_angle_r	subtalar_angle_r	mtp_angle_r	hip_flexion_l	hip_adduction_l	hip_rotation_l	knee_angle_l	ankle_angle_l	subtalar_angle_l	mtp_angle_l	lumbar_extension	lumbar_bending	lumbar_rotation	arm_flex_r	arm_add_r	arm_rot_r	elbow_flex_r	pro_sup_r	arm_flex_l	arm_add_l	arm_rot_l	elbow_flex_l	pro_sup_l
      4.14166670	      2.07178365	     -9.60008781	   -173.37743519	      0.10253910	      1.13693656	      0.13308985	     31.21780482	     -9.80142043	     -5.57046857	     13.05586835	    -10.92516959	      5.21719529	      0.00000000	    -14.67208274	      7.28720832	     -0.02481618	     42.29059345	    -16.67966539	    -22.44966174	      0.00000000	    -14.49657883	    -11.55387083	    -21.97659895	    -34.09438536	    -16.19101420	     -0.94668230	    101.54042539	     94.10655815	     24.15769410	    -24.45017596	     24.98145909	     98.62642511	     71.52474162
      4.15000000	      1.62970231	     -9.60992477	   -173.35739214	      0.10365568	      1.13347599	      0.13368214	     30.61682553	     -9.87597930	     -5.78123502	     12.42603000	    -11.24196947	      6.16127800	      0.00000000	    -13.73110163	      7.37405649	      0.95030025	     47.69650472	    -17.12776565	    -25.65910543	      0.00000000	    -14.90071445	    -11.16424699	    -21.34675649	    -33.74391699	    -16.33655409	     -1.89778941	    102.47646953	     94.45475936	     24.16836073	    -24.34339415	     26.16408821	     98.91549648	     70.56637480
      4.15833330	      1.26691428	     -9.47840735	   -173.34243887	      0.10377491	      1.12971790	      0.13437520	     29.83614935	     -9.71888103	     -6.12521382	     12.00279134	    -12.20918124	      6.59889195	      0.00000000	    -12.65342392	      7.33911648	      1.64986127	     53.12312811	    -16.73397259	    -27.63276615	      0.00000000	    -15.06634808	    -10.64365032	    -20.61204038	    -33.19955047	    -16.72443701	     -2.48485692	    102.88952884	     94.60348433	     23.59936308	    -24.28135298	     26.95100533	     99.23461532	     70.15954280
      4.16666670	      1.11911018	     -9.47088118	   -173.45359148	      0.10391971	      1.12500912	      0.13445269	     29.26087434	     -9.63334732	     -6.83691704	     11.95646508	    -13.29715689	      7.04617536	      0.00000000	    -11.25559659	      7.49424267	      2.10668367	     58.53460561	    -17.63280403	    -29.70758179	      0.00000000	    -15.09095797	    -10.25447561	    -19.72714065	    -32.56472105	    -16.99669141	     -3.25373292	    103.37769725	     94.81378416	     22.57894634	    -24.49455247	     27.54312536	     99.79311471	     69.61103520
      4.17500000	      0.84693049	     -9.11136702	   -173.63542001	      0.10288751	      1.12113502	      0.13402739	     28.39164930	     -9.13056502	     -7.68421171	     12.17930776	    -14.25667890	      6.86782095	      0.00000000	     -9.98775645	      7.02075087	      2.04914967	     63.67329184	    -18.27731040	    -31.71242268	      0.00000000	    -15.08321366	     -9.51427974	    -18.58635748	    -31.80237423	    -17.40952921	     -3.76002664	    103.31755932	     94.91439821	     21.05378324	    -24.77429164	     27.95199282	    100.05657882	     69.40218340
      4.18333330	      0.83845226	     -9.04001889	   -173.87716868	      0.10302389	      1.11553569	      0.13384708	     27.81932199	     -8.93614815	     -8.32098535	     12.90169167	    -15.20652273	      6.43587681	      0.00000000	     -8.46773083	      7.08750757	      2.26460984	     68.66735882	    -19.50633008	    -33.22179010	      0.00000000	    -15.00452801	     -9.06681284	    -17.67348832	    -30.68333767	    -17.92900935	     -4.10135357	    103.42676235	     95.18779543	     18.84079516	    -25.28424137	     27.40501772	    100.61551526	     69.08950589
      4.19166670	      0.79079628	     -8.74685480	   -174.30510752	      0.10298219	      1.10940706	      0.13394612	     27.26973206	     -8.47671046	     -8.80444540	     14.15576485	    -15.69038864	      5.38768749	      0.00000000	     -6.87103384	      6.82327186	      2.20889363	     73.62190676	    -19.91114372	    -33.26259409	      0.00000000	    -14.94348738	     -8.36307221	    -17.16262127	    -28.77224516	    -19.18244264	     -3.37202138	    103.02319176	     95.73485349	     14.99571576	    -26.10839775	     25.55295900	    101.78798042	     69.27370908
      4.20000000	      0.67758744	     -8.33216277	   -174.57089385	      0.10349770	      1.10347941	      0.13420315	     26.73299216	     -7.95277281	     -9.21233102	     16.01594615	    -14.60771423	      3.93944009	      0.00000000	     -5.26646134	      6.41151581	      2.07709627	     78.31432608	    -19.79930000	    -33.09682543	      0.00000000	    -15.16385438	     -7.41740595	    -15.97646963	    -27.46898812	    -20.14229368	     -3.46070751	    102.84213249	     95.84975549	     12.39108595	    -26.50807252	     24.96050417	    101.69767994	     69.83599289
      4.20833330	      0.46502437	     -7.99029482	   -175.08502953	      0.10441675	      1.09724088	      0.13433451	     26.28330698	     -7.35179128	     -9.05622927	     18.48129664	    -12.24802228	      2.24609728	      0.00000000	     -3.60465649	      5.98025001	      1.67124785	     82.89971269	    -18.96824639	    -32.09706742	      0.00000000	    -15.51821606	     -6.69822546	    -15.56868551	    -24.88211394	    -21.58031022	     -2.42065130	    102.04839802	     96.06697206	      8.64614237	    -27.25430016	     22.91947435	    101.71128456	     72.03374736
      4.21666670	      0.33266853	     -7.48385151	   -175.65536925	      0.10662651	      1.08999241	      0.13427323	     26.20258812	     -6.48316768	     -8.19978920	     21.50511084	     -9.39446874	      0.03991243	      0.00000000	     -1.61408572	      5.40825518	      1.24234101	     87.60101685	    -18.09144376	    -30.85908521	      0.00000000	    -15.91136267	     -5.67935848	    -13.68471922	    -23.66060692	    -22.76080633	     -2.67610995	    102.01455407	     96.06428618	      6.69079569	    -27.18751358	     22.47496532	    100.42411006	     72.54277433
      4.22500000	      0.40170156	     -7.09259480	   -176.09743754	      0.10891128	      1.08226995	      0.13412845	     26.57342331	     -5.66766852	     -6.76393371	     25.01194013	     -6.22138888	     -2.58587495	      0.00000000	      0.79189854	      4.94692740	      0.83085411	     92.23299938	    -16.81456251	    -29.72293936	      0.00000000	    -16.23325767	     -4.85968336	    -12.18096517	    -22.04264995	    -23.86662309	     -2.83189941	    101.72273270	     96.08471487	      4.77167911	    -27.31930709	     21.75176126	     98.90061385	     73.28268357
      4.23333330	      0.66727944	     -6.65058396	   -176.28073052	      0.10965763	      1.07518403	      0.13379109	     27.06035611	     -4.80933156	     -5.41220889	     28.63952148	     -3.12700572	     -5.27613936	      0.00000000	      3.36932340	      4.38050802	      0.63094673	     96.47029654	    -15.49875900	    -29.34152232	      0.00000000	    -16.31280897	     -4.11186401	    -12.64377574	    -18.18314611	    -25.64367793	     -0.35820909	     99.93283405	     96.30580497	      0.60310169	    -27.39043468	     18.31695532	     98.44021512	     78.65878645
      4.24166670	      0.67994932	     -6.31236038	   -176.64775499	      0.11067197	      1.06793208	      0.13230524	     27.28195037	     -3.80021231	     -3.70110672	     32.24943165	     -0.19969578	     -7.94964546	      0.00000000	      5.75058077	      3.92340077	      0.38362936	    100.44395494	    -14.39900291	    -28.82051700	      0.00000000	    -16.71399068	     -3.41170725	    -10.88234345	    -16.89570863	    -26.66358758	     -0.48084605	     99.70602215	     96.26065112	     -0.74921803	    -27.35828361	     17.52149671	     96.27029994	     79.39958826
      4.25000000	      0.97779487	     -5.93392770	   -176.86067227	      0.11097137	      1.06100034	      0.13049946	     27.59900344	     -2.76609587	     -2.20724898	     35.54080883	      2.29104112	    -10.35239281	      0.00000000	      8.58188913	      3.39546186	      0.33065262	    104.11687684	    -13.07337444	    -27.68476392	      0.00000000	    -16.59635909	     -2.76417602	     -9.73767389	    -14.65546420	    -27.58771109	      0.07653180	     98.64651372	     96.24203092	     -2.65138314	    -27.66437653	     16.63324581	     94.15574985	     81.04703857
      4.25833330	      1.23722493	     -5.61025206	   -177.14030852	      0.11202557	      1.05401081	      0.12842536	     27.68201525	     -1.70363459	     -0.58306988	     38.49969918	      4.33544538	    -12.76369055	      0.00000000	     11.37316791	      2.85896588	      0.27773699	    107.23620938	    -11.92744581	    -26.94255507	      0.00000000	    -16.67561147	     -2.19825645	     -8.35269585	    -12.53745549	    -28.45499499	      0.75870702	     97.66199907	     96.23704208	     -4.29893901	    -27.69948505	     15.61265454	     91.78643518	     82.23271710
      4.26666670	      1.52460461	     -5.34763091	   -177.48016222	      0.11371832	      1.04740017	      0.12590368	     27.63291085	     -0.72863877	      0.74411030	     41.20977745	      5.92946649	    -15.09890027	      0.00000000	     14.22776655	      2.38003709	      0.26545979	    109.98723312	    -10.66475498	    -25.22905068	      0.00000000	    -16.75568016	     -1.75092801	     -6.75161939	    -10.33088688	    -29.14194720	      1.34061667	     96.71421676	     96.23763229	     -5.67623715	    -27.85726118	     14.81842674	     89.28397149	     82.99400023
      4.27500000	      1.79139152	     -5.00068671	   -177.88576655	      0.11554047	      1.04199952	      0.12438526	     27.24924348	      0.26664561	      1.88921480	     43.43487403	      6.93995597	    -17.14979372	      0.00000000	     17.04318960	      1.78523119	      0.21724329	    112.14442200	     -9.18537594	    -23.49074416	      0.00000000	    -16.74443597	     -1.24367794	     -5.18223732	     -7.99004527	    -29.64985403	      1.86176055	     95.87394942	     96.23433520	     -7.01503202	    -28.19420905	     14.11122793	     86.56498725	     83.51514444
      4.28333330	      2.36675795	     -4.45608114	   -177.99034777	      0.11824079	      1.03693634	      0.12317534	     26.85069653	      1.31139217	      2.63120525	     45.15168733	      7.82385895	    -19.32726772	      0.00000000	     20.32905041	      1.10904114	      0.52110195	    113.97062836	     -7.50396183	    -21.27719928	      0.00000000	    -16.29835018	     -0.54106845	     -4.55900844	     -4.52334253	    -30.16527277	      4.21577646	     94.13822331	     96.18211729	     -9.26367992	    -28.43511829	     12.70788580	     84.45180579	     84.92428573
      4.29166670	      2.55468200	     -4.26396256	   -178.47068491	      0.12159938	      1.03361746	      0.12205437	     25.89236896	      2.04163036	      3.60493833	     46.50054802	      9.08084487	    -20.49279817	      0.00000000	     23.15838435	      0.73945494	      0.33320808	    115.08799124	     -5.38305504	    -18.93770631	      0.00000000	    -16.61951784	     -0.26379053	     -2.85501127	     -2.17942613	    -30.34117580	      4.66042676	     93.64779878	     96.09239271	    -10.32793642	    -28.32669742	     11.55432666	     82.17380365	     85.23010445
      4.30000000	      3.10547110	     -3.75502555	   -178.68665923	      0.12496070	      1.03097378	      0.12151253	     24.98894761	      2.93609287	      4.26204384	     47.15810491	     10.04760915	    -21.55348618	      0.00000000	     26.55889474	      0.15562391	      0.47356309	    115.78391668	     -3.72917508	    -16.91298614	      0.00000000	    -16.32849735	      0.34283315	     -2.08156237	      1.01663030	    -30.46707835	      6.42145254	     92.63013184	     95.88544577	    -12.28779144	    -28.44718302	     10.08018767	     80.56469952	     85.75605391
